<svg class="logo_svg__icon" width="1em" height="1em" viewBox="0 0 1024 1024" xmlns="http://www.w3.org/2000/svg"><path fill="#333" d="M1.984 128h64v64h-64v-64zm64 64h64v64h-64v-64zm64 64h64v64h-64v-64zm64-64h64v64h-64v-64zm64-64h64v64h-64v-64zm64-64h64v64h-64V64zm-320 384h64v64h-64v-64zm64 64h64v64h-64v-64zm64 64h64v64h-64v-64zm64-64h64v64h-64v-64zm64-64h64v64h-64v-64zm64-64h64v64h-64v-64zm128-193.984H1024v68.992H449.984v-68.992zm0 638.016H1024v68.992H449.984v-68.992zm0-321.024H1024V576H449.984v-68.992zM65.984 768h192v192h-192V768z"></path></svg>
