<svg width="1em" height="1em" viewBox="0 0 200 200" xmlns="http://www.w3.org/2000/svg"><path d="M40.662 11.336h80.776c1.887 0 3.581.677 4.791 1.936l49.366 49.413a6.633 6.633 0 012.033 4.792v102.99c0 4.985-2.033 9.534-5.324 12.874v.048l-.194.097c-3.291 3.242-7.84 5.178-12.777 5.178H40.663c-5.034 0-9.583-1.936-12.923-5.275v-.049.049c-3.242-3.34-5.372-7.938-5.372-12.922V29.533c0-4.985 2.13-9.534 5.372-12.874 3.291-3.29 7.84-5.323 12.922-5.323zm59.82 33.781c1.597-1.645 4.162-1.645 5.807 0 1.55 1.597 1.55 4.162 0 5.808l-7.259 7.211v30.49c0 2.227-1.888 4.114-4.114 4.114H50.44c-2.227 0-4.162-1.887-4.162-4.113V44.1c0-2.226 1.936-4.113 4.162-4.113h44.477c2.226 0 4.114 1.887 4.114 4.114v2.468l1.452-1.452zm-9.68 21.247L79.09 78.076c-1.597 1.597-4.162 1.597-5.808 0l-13.551-13.6c-1.646-1.597-1.646-4.21 0-5.71 1.549-1.694 4.162-1.694 5.807 0l10.6 10.647 14.664-14.665v-6.533H54.456V84.61h36.346V66.364zM50.44 107.259h44.477c2.226 0 4.114 1.888 4.114 4.114V155.9c0 2.226-1.888 4.114-4.114 4.114H50.44c-2.227 0-4.162-1.888-4.162-4.114v-44.526c0-2.226 1.935-4.114 4.162-4.114zm40.363 8.131H54.456v36.395h36.346V115.39zM163.98 71.64h-31.071c-4.307 0-8.13-1.79-10.938-4.55l-.29-.387c-2.614-2.758-4.356-6.485-4.356-10.647V24.887H40.662c-1.306 0-2.42.58-3.29 1.452-.775.774-1.356 1.936-1.356 3.194v140.934c0 1.258.581 2.42 1.355 3.29.823.775 1.985 1.356 3.291 1.356h118.671c1.259 0 2.42-.532 3.291-1.355.823-.871 1.355-2.033 1.355-3.291V71.639zm-6.969-8.228l-31.458-31.555v24.199c0 1.888.726 3.678 1.936 5.033l.193.194a7.517 7.517 0 005.227 2.13h24.102z"></path></svg>
