<svg width="1em" height="1em" viewBox="0 0 1024 1024" xmlns="http://www.w3.org/2000/svg"><path d="M560 688h64c9.6 0 16-6.4 16-16v-64c0-9.6-6.4-16-16-16h-64c-9.6 0-16 6.4-16 16v64c0 9.6 6.4 16 16 16zm0-160h64c9.6 0 16-6.4 16-16v-64c0-9.6-6.4-16-16-16h-64c-9.6 0-16 6.4-16 16v64c0 9.6 6.4 16 16 16zm160 0h64c9.6 0 16-6.4 16-16v-64c0-9.6-6.4-16-16-16h-64c-9.6 0-16 6.4-16 16v64c0 9.6 6.4 16 16 16zm-320 0h64c9.6 0 16-6.4 16-16v-64c0-9.6-6.4-16-16-16h-64c-9.6 0-16 6.4-16 16v64c0 9.6 6.4 16 16 16zm320 160h64c9.6 0 16-6.4 16-16v-64c0-9.6-6.4-16-16-16h-64c-9.6 0-16 6.4-16 16v64c0 9.6 6.4 16 16 16zm0 160h64c9.6 0 16-6.4 16-16v-64c0-9.6-6.4-16-16-16h-64c-9.6 0-16 6.4-16 16v64c0 9.6 6.4 16 16 16zm-160 0h64c9.6 0 16-6.4 16-16v-64c0-9.6-6.4-16-16-16h-64c-9.6 0-16 6.4-16 16v64c0 9.6 6.4 16 16 16zm-320 0h64c9.6 0 16-6.4 16-16v-64c0-9.6-6.4-16-16-16h-64c-9.6 0-16 6.4-16 16v64c0 9.6 6.4 16 16 16zm0-160h64c9.6 0 16-6.4 16-16v-64c0-9.6-6.4-16-16-16h-64c-9.6 0-16 6.4-16 16v64c0 9.6 6.4 16 16 16z"></path><path d="M896 128H768V96c0-16-12.8-32-32-32s-32 12.8-32 32v32H320V96c0-16-12.8-32-32-32s-32 12.8-32 32v32H128c-35.2 0-64 28.8-64 64v704c0 35.2 28.8 64 64 64h768c35.2 0 64-28.8 64-64V192c0-35.2-28.8-64-64-64zm0 736c0 19.2-12.8 32-32 32H160c-19.2 0-32-12.8-32-32V368h768v496zm0-560H128v-80c0-19.2 12.8-32 32-32h96v32c0 16 12.8 32 32 32s32-12.8 32-32v-32h384v32c0 16 12.8 32 32 32s32-12.8 32-32v-32h96c19.2 0 32 12.8 32 32v80z"></path><path d="M240 528h64c9.6 0 16-6.4 16-16v-64c0-9.6-6.4-16-16-16h-64c-9.6 0-16 6.4-16 16v64c0 9.6 6.4 16 16 16zm160 160h64c9.6 0 16-6.4 16-16v-64c0-9.6-6.4-16-16-16h-64c-9.6 0-16 6.4-16 16v64c0 9.6 6.4 16 16 16zm0 160h64c9.6 0 16-6.4 16-16v-64c0-9.6-6.4-16-16-16h-64c-9.6 0-16 6.4-16 16v64c0 9.6 6.4 16 16 16z"></path></svg>
