<svg width="1em" height="1em" viewBox="0 0 1024 1024" xmlns="http://www.w3.org/2000/svg"><path d="M512.002 0C229.672 0 0 229.686 0 512c0 282.313 229.67 512 512.002 512C794.33 1024 1024 794.313 1024 512 1023.999 229.685 794.33 0 512.002 0zm0 983.031C252.263 983.031 40.955 771.73 40.955 512 40.955 252.263 252.262 40.968 512 40.968c259.73 0 471.043 211.295 471.043 471.031.001 259.73-211.312 471.032-471.042 471.032zm0-665.248c-107.266 0-194.204 86.967-194.204 194.216s86.938 194.203 194.204 194.203c107.263 0 194.2-86.953 194.2-194.203-.001-107.248-86.938-194.216-194.2-194.216z" fill="#272636"></path></svg>
