<svg class="logo_svg__icon" width="1em" height="1em" viewBox="0 0 1024 1024" xmlns="http://www.w3.org/2000/svg"><path d="M800 416H224c-16 0-32 12.8-32 32s12.8 32 32 32h576c16 0 32-12.8 32-32s-12.8-32-32-32zm0 128H224c-16 0-32 12.8-32 32s12.8 32 32 32h576c16 0 32-12.8 32-32s-12.8-32-32-32zM608 672H224c-19.2 0-32 12.8-32 32s16 32 32 32h384c19.2 0 32-12.8 32-32s-16-32-32-32z"></path><path d="M896 96H128c-35.2 0-64 28.8-64 64v672c0 35.2 28.8 64 64 64h768c35.2 0 64-28.8 64-64V160c0-35.2-28.8-64-64-64zm0 704c0 19.2-12.8 32-32 32H160c-19.2 0-32-12.8-32-32V192c0-19.2 12.8-32 32-32h704c19.2 0 32 12.8 32 32v608z"></path><path d="M800 288H224c-16 0-32 12.8-32 32s12.8 32 32 32h576c16 0 32-12.8 32-32s-12.8-32-32-32z"></path></svg>
